<svg width="68" height="57" viewBox="0 0 68 57" fill="none" xmlns="http://www.w3.org/2000/svg">
<g clip-path="url(#clip0_34_112)">
<path d="M16.8573 1.47547C16.958 0.800831 16.5505 0.490204 15.9847 0.490204H7.56562C6.99987 0.490204 6.48686 0.907608 6.38618 1.47547L4.78003 10.7021L16.1957 5.2855L16.8573 1.47547Z" fill="#6CC1B9"/>
<path d="M4.06108 14.8373L0.0193387 38.0663C-0.0813452 38.5857 0.225501 39.105 0.839193 39.105H9.25829C10.0302 39.105 10.3898 38.639 10.4905 38.0663L15.4767 9.42072L4.06108 14.8373Z" fill="#164193"/>
<path d="M46.1277 1.66476L45.0489 8.00834C44.9482 8.58106 44.3825 9.047 43.8167 9.047H33.4463C31.5956 9.047 30.8812 9.66826 30.5217 11.6436L29.8552 15.4391H42.4887C43.0017 15.4391 43.3612 15.8031 43.3612 16.3225V16.4778L42.2825 22.6127C42.1818 23.1854 41.664 23.6513 41.1031 23.6513H28.4696L27.6977 27.9661C27.645 28.3835 27.597 28.6941 27.597 29.0048C27.597 30.1987 28.2107 30.5628 29.7018 30.5628H40.0722C40.5853 30.5628 40.9448 30.9268 40.9448 31.4461V31.6014L39.8133 37.9401C39.7127 38.5662 39.3003 38.8769 38.6339 38.9788C36.6298 39.236 33.499 39.6049 28.5176 39.6049C22.5101 39.6049 17.0156 37.4208 17.0156 30.6113C17.0156 29.7813 17.1163 28.8931 17.2745 27.9613L20.0985 11.6388C21.8916 1.14544 28.0525 0 35.2922 0C40.2736 0 43.4044 0.364016 45.303 0.626107C45.8688 0.679496 46.1229 0.936734 46.1229 1.45606V1.66476H46.1277Z" fill="#164193"/>
<path d="M68.0001 31.6063L66.8686 37.945C66.7679 38.5711 66.3556 38.8817 65.6891 38.9836C63.7378 39.3477 60.2954 39.6097 57.5769 39.6097C51.7756 39.6097 46.075 37.6877 46.075 30.6695C46.075 29.8396 46.1756 28.9562 46.3339 27.9661L50.8982 1.55798C50.9989 0.985258 51.6174 0.519318 52.1831 0.519318H60.5543C61.0673 0.519318 61.3741 0.883333 61.3741 1.34927V1.55798L56.805 27.9661C56.7522 28.3301 56.7043 28.6407 56.7043 28.9514C56.7043 30.1453 57.3228 30.5627 58.8091 30.5627H67.1275C67.6405 30.5627 68.0001 30.9268 68.0001 31.4461V31.6014V31.6063Z" fill="#164193"/>
<path d="M29.5532 47.3075L29.2464 49.0305C29.2176 49.1906 29.1265 49.2877 28.9683 49.2877H28.93C28.3978 49.2343 27.8416 49.1664 27.0841 49.1664C26.3649 49.1664 25.6889 49.4236 25.3725 51.1951L25.1184 52.5784C25.0656 52.9036 25.0369 53.1705 25.0369 53.3986C25.0369 54.4082 25.5547 54.6072 26.1396 54.6072C26.8971 54.6072 27.4676 54.5392 28.0142 54.4858H28.0526C28.1868 54.4858 28.2539 54.5392 28.2539 54.6751V54.7431L27.9471 56.4661C27.9183 56.6408 27.8416 56.6942 27.6163 56.7622C27.2423 56.8835 26.5663 57.0048 25.732 57.0048C23.7519 57.0048 22.28 55.8885 22.28 53.6704C22.28 53.3356 22.3184 52.9715 22.3855 52.5833L22.6396 51.2C23.2485 47.8122 24.9649 46.7639 27.4772 46.7639C28.3019 46.7639 28.9779 46.8998 29.3087 47.0211C29.4526 47.0745 29.5628 47.1133 29.5628 47.2492V47.3172L29.5532 47.3075Z" fill="#164193"/>
<path d="M37.1428 47.1861L36.8647 48.8266C36.8407 48.9722 36.6921 49.0936 36.5435 49.0936H33.8586C33.3791 49.0936 33.1921 49.2537 33.101 49.7682L32.9284 50.7486H36.1983C36.3325 50.7486 36.4236 50.8408 36.4236 50.9767V51.0156L36.1455 52.6027C36.1168 52.7483 35.9873 52.8696 35.8387 52.8696H32.5689L32.3675 53.9859C32.3531 54.0927 32.3387 54.1752 32.3387 54.2529C32.3387 54.5635 32.4969 54.6557 32.8853 54.6557H35.5702C35.7044 54.6557 35.7955 54.7479 35.7955 54.8838V54.9227L35.5031 56.5632C35.4743 56.7233 35.3688 56.8058 35.1962 56.8301C34.6784 56.8981 33.8682 56.9903 32.5784 56.9903C31.025 56.9903 29.6011 56.4273 29.6011 54.6654C29.6011 54.4519 29.625 54.2189 29.6682 53.9811L30.397 49.7585C30.862 47.0405 32.4538 46.7444 34.3284 46.7444C35.6181 46.7444 36.4284 46.8367 36.9174 46.9046C37.0613 46.9192 37.1284 46.9871 37.1284 47.1182V47.1716L37.1428 47.1861Z" fill="#164193"/>
<path d="M44.9003 56.8835H42.6421C42.5078 56.8835 42.4167 56.7622 42.4167 56.6263L42.3784 54.7577H40.0147L39.3099 56.6263C39.2572 56.7622 39.1373 56.8835 39.0031 56.8835H36.6538C36.5339 56.8835 36.4668 56.8156 36.4668 56.7088C36.4668 56.6797 36.4812 56.6408 36.4956 56.602L39.7127 48.3704C40.2305 47.0405 41.2804 46.7687 42.5414 46.7687C43.8023 46.7687 44.7612 47.0357 44.814 48.3704L45.1592 56.602V56.6166C45.1592 56.7622 45.0537 56.8835 44.9051 56.8835H44.9003ZM42.3113 49.1858C42.3113 49.0645 42.3113 48.9965 42.1914 48.9965C42.0715 48.9965 42.0572 49.0645 42.0188 49.1858L40.7722 52.6027H42.3688L42.3161 49.1858H42.3113Z" fill="#164193"/>
<path d="M53.0461 52.8745L54.3358 56.534C54.3502 56.5632 54.3502 56.602 54.3502 56.6263C54.3502 56.7719 54.2447 56.8835 54.0865 56.8835H51.7468C51.603 56.8835 51.5742 56.7476 51.5358 56.6165L50.4187 53.3356C50.1263 53.3356 49.8482 53.3356 49.5557 53.3064L48.9852 56.6165C48.9564 56.7622 48.8126 56.8835 48.6639 56.8835H46.5112C46.377 56.8835 46.2859 56.7913 46.2859 56.6554V56.6165L47.8153 47.8219C47.9208 47.1764 48.1461 47.0308 48.7311 46.9337C49.2776 46.8512 50.3372 46.759 51.5215 46.759C53.6358 46.759 55.2276 47.5259 55.2276 49.3799C55.2276 50.9282 54.5372 52.2872 53.0509 52.8745H53.0461ZM51.3201 49.0547C50.9605 49.0547 50.5098 49.0693 50.2845 49.0838L49.9105 51.2243C50.0543 51.2388 50.2174 51.2388 50.3756 51.2388H50.879C51.929 51.2388 52.4995 50.836 52.4995 49.7731C52.4995 49.2731 52.1543 49.0596 51.3153 49.0596L51.3201 49.0547Z" fill="#164193"/>
<path d="M63.5028 56.8835H61.2446C61.1104 56.8835 61.0193 56.7622 61.0193 56.6263L60.9809 54.7577H58.6172L57.9125 56.6263C57.8597 56.7622 57.7399 56.8835 57.6056 56.8835H55.2563C55.1365 56.8835 55.0693 56.8156 55.0693 56.7088C55.0693 56.6797 55.0837 56.6408 55.0981 56.602L58.3152 48.3704C58.833 47.0405 59.883 46.7687 61.1439 46.7687C62.4049 46.7687 63.3638 47.0357 63.4165 48.3704L63.7617 56.602V56.6166C63.7617 56.7622 63.6562 56.8835 63.5076 56.8835H63.5028ZM60.909 49.1858C60.909 49.0644 60.909 48.9965 60.7891 48.9965C60.6693 48.9965 60.6549 49.0644 60.6165 49.1858L59.37 52.6027H60.9665L60.9138 49.1858H60.909ZM64.1117 44.4293L62.1604 46.0455C62.0405 46.1378 62.0021 46.1911 61.8152 46.1911H60.0987C60.0316 46.1911 59.9933 46.162 59.9933 46.1086C59.9933 46.0698 60.022 46.0164 60.0748 45.9582L61.5515 44.4245C61.6953 44.2789 61.7528 44.2206 61.9494 44.2206H64.0494C64.1309 44.2206 64.1932 44.2497 64.1932 44.3031C64.1932 44.3419 64.1644 44.3856 64.1117 44.4245V44.4293Z" fill="#164193"/>
</g>
<defs>
<clipPath id="clip0_34_112">
<rect width="68" height="57" fill="white"/>
</clipPath>
</defs>
</svg>
